# xmcd
#
# Track frame offsets: 
#        150
#        17486
#        36252
#        55370
#        75600
#        91074
#        107594
#        123139
#        146268
#        164954
#
# Disc length: 2418 seconds
#
# Revision: 3
# Processed by: cddbd v1.5.2PL0 Copyright (c) Steve Scherf et al.
# Submitted via: ExactAudioCopyFreeDBPlugin 1.0
#
DISCID=7809700a
DTITLE=黃寶欣 - 濃情
DYEAR=1988
DGENRE=Chinese Pop
TTITLE0=01 濃情
TTITLE1=02 I'm Your Friend I'm Your Lover
TTITLE2=03 不會哭泣
TTITLE3=04 孤獨一夜
TTITLE4=05 遠遠的河
TTITLE5=06 兩地情
TTITLE6=07 黑布衣
TTITLE7=黃寶欣、鄭敬基 - 08 酒杯敲鋼琴
TTITLE8=09 害怕寂寞
TTITLE9=10 兩地情(音樂)
EXTD=
EXTT0=
EXTT1=
EXTT2=
EXTT3=
EXTT4=
EXTT5=
EXTT6=
EXTT7=
EXTT8=
EXTT9=
PLAYORDER=
